<svg id="Lag_1" data-name="Lag 1" xmlns="http://www.w3.org/2000/svg" viewBox="0 0 408.83 91.37"><defs><style>.cls-1{fill:#c6c6c5;}.cls-1,.cls-10,.cls-2,.cls-3,.cls-4,.cls-5,.cls-6,.cls-7,.cls-8,.cls-9{stroke:#1d1d1b;stroke-miterlimit:10;stroke-width:0.5px;}.cls-2{fill:#0b4221;}.cls-3{fill:#085629;}.cls-4{fill:#fff;}.cls-5{fill:#0590c0;}.cls-6{fill:#fcd18c;}.cls-7{fill:#e5ba80;}.cls-8{fill:#1d4921;}.cls-9{fill:#1d1d1b;}.cls-10{fill:#422918;}</style></defs><title>armNed</title><path class="cls-1" d="M397.88,1215.4l-16.28-1.32a5.69,5.69,0,0,0-1.59,3.15c-.23,1.76.69,2.48,4.11,8.26,1.26,2.13,1.61,2.47,2.22,2.94s1.46,1,5.46,1.76a30.4,30.4,0,0,0,4.4.63,22,22,0,0,0,7.88-1.14Q401,1222.54,397.88,1215.4Z" transform="translate(-358.17 -1172.67)"/><path class="cls-2" d="M396.85,1230.65c2.94-.76,4.12-.31,4.7,0,1,.55,2.3,1.8,2.06,2.86-.33,1.48-3.17.89-6,2.87-.93.66-1.11,1.07-4.47,7.34-2.65,4.92-3.31,6.1-2.87,7.68a8.26,8.26,0,0,0,2.29,3.32c1.86,2,3.41,2.38,3.67,4a2.66,2.66,0,0,1-.34,1.83c-1.05,1.58-4.44,1.91-6,.12-.93-1.11.27-2.27-.58-3.67-1.06-1.77-3.5-1-4.81-2.76-.85-1.12-.68-2.59-.46-4,1.38-8.76,2.07-13.14,6-16.39A16.16,16.16,0,0,1,396.85,1230.65Z" transform="translate(-358.17 -1172.67)"/><path class="cls-3" d="M381.14,1214.14c.69-.29,1.38.49,1.83.11s.26-2.5-.91-3.32c-1-.69-1.91-.1-4.36.11-.57,0-.5,0-6-.34-3.77-.25-4.78-.3-5.73.46a4.47,4.47,0,0,0-1.38,2.17c-.62,1.7-.33,3,0,6.08.15,1.37.21,2.75.34,4.13.58,5.88.87,8.84,1,10a56.47,56.47,0,0,0,1.26,6.65,39.07,39.07,0,0,0,3.32,9.06c1.55,2.92,3.35,6.28,7,8.83a19.72,19.72,0,0,0,12.49,3.21,5.63,5.63,0,0,0-.11-3.1c-1.16-3.33-5.21-3.22-6-5.84-.52-1.82,1.26-2.41,3-7s.71-5.84,2.4-7.45c2.42-2.31,5.71-.76,6.54-2.52s-1.49-5.55-4.36-6.31c-2-.52-3,.7-4.7-.23-1-.54-1-1.15-2.75-3.32-1.58-1.94-1.81-1.74-2.52-2.75C379.39,1219.57,379.7,1214.74,381.14,1214.14Z" transform="translate(-358.17 -1172.67)"/><path class="cls-4" d="M364.86,1211c-.5-.25-2.81-1.37-4.47-.34-1.06.65-1.44,1.93-1.72,4.47a43.77,43.77,0,0,0,.11,10.2,10,10,0,0,1,3.1,5.39c.49,2.9-.91,4.36-.92,7.8,0,2.33.68,4,2.07,7.34a33.41,33.41,0,0,0,6.07,10.2c2.39,2.68,4.92,5.52,9.29,6.88a17.27,17.27,0,0,0,9.51.11c1.07-.57,2.19-1.27,2.07-1.72s-2.41-.25-4.7-.46a20.81,20.81,0,0,1-8-3c-5.4-3.25-7.43-9.58-9.17-15-1.93-6-.57-5.79-3-17.88a36.49,36.49,0,0,1-.8-8.37A35.85,35.85,0,0,1,364.86,1211Z" transform="translate(-358.17 -1172.67)"/><path class="cls-5" d="M389.39,1213.68a1.87,1.87,0,0,0-.22-1.49c-1.24-2.23-6.09-1.9-6.88-1.84a10.1,10.1,0,0,1,1,3.1,8.7,8.7,0,0,1,.11,1.38C386.61,1215.35,389,1214.86,389.39,1213.68Z" transform="translate(-358.17 -1172.67)"/><path class="cls-1" d="M395.93,1260.57c.18.23-.88,1.92-2.75,2.64s-4.4.29-4.59-.5c-.15-.6,1-1.63,1.88-1.56.47,0,.63.32,1,.53C393.18,1262.55,395.69,1260.27,395.93,1260.57Z" transform="translate(-358.17 -1172.67)"/><path class="cls-6" d="M397.88,1215.4a116,116,0,0,0,19.6-1.38c9.47-1.47,11.49-3,20.18-4.12a107.41,107.41,0,0,1,22.93-.35c11.85.88,14.65,2.71,24.42,2.52a76.93,76.93,0,0,0,14.79-1.72l-.34,28.09a30.89,30.89,0,0,1-12.61.69c-4-.63-4.76-1.6-10-3.09a69,69,0,0,0-16.39-2.53c-7.31-.33-7.39.75-14.45.12-3.56-.32-4.44-.68-10.66-1.38-.43,0-5-.56-10.09-.92-15.59-1.09-17.79.55-21.2-1.65C401.44,1228,398.54,1224.28,397.88,1215.4Z" transform="translate(-358.17 -1172.67)"/><path class="cls-7" d="M672.35,1236.72l-5.19.34a33,33,0,0,0,33.8,22.11l6.85-.28,2.91-.77a26.23,26.23,0,0,0-9.13-3.74c-4.62-.9-6.83.11-13.65-1.15-3-.56-4.7-.88-6.53-2.18-1-.73-2.16-1.79-4.82-6.3C675.42,1242.75,673.92,1240.05,672.35,1236.72Z" transform="translate(-358.17 -1172.67)"/><path class="cls-6" d="M691.94,1191.3c.8-.47,1.3.48,5.45,1.77,3.36,1,7.29,2.31,11.41,1.21,2.54-.67,2.29-1.39,5.27-2.17s3.5-.11,7.72-.56c4.91-.52,5.88-1.61,8.68-.89.93.24,3.62.92,4.23,2.89.73,2.33-1.9,5-2.09,5.15-1.71,1.67-3.29,1.61-3.49,2.65-.12.67.34,1.73,3.12,3.44.76-.47,7.25-4.41,11.66-5.7,1.65-.48,2.54-.74,3.64-.42,1.37.4,2.62,1.57,3.45,1a1.54,1.54,0,0,0,.2-.18,38.22,38.22,0,0,0,2.45-4c.56-.92.6-1.82,1.33-2.13a2.72,2.72,0,0,1,2.26.42c1.7,1.09,1.18,2.75,2.88,6,1.18,2.21,1.88,2.27,1.95,3.51.14,2.23-2,4.07-2.72,4.72-3,2.6-5,1.39-7.23,3.75-1.19,1.25-1.69,2.7-2.57,5.2-1.1,3.16-.91,4.65-2,5.06-1.2.46-2-1.28-4.87-1.6-1.38-.15-3.23,0-3.6.9-.24.58.32,1.05,0,1.62a1.8,1.8,0,0,1-2.27.5c-.93-.57-.62-2.17-1.08-2.23s-1,1-1,2c0,.75.45,1,.28,1.31-.28.54-1.55-.07-3.06.39-1.33.41-1.41,1.22-2.28,1.43-1.5.36-2.87-1.64-4.83-3.56-.82-.8-4.69-4.6-9.62-5.83-.56-.14-2.47-.26-6.29-.51-5.59-.37-5.9-.28-6.58-.39C694.19,1214.68,688.37,1193.41,691.94,1191.3Z" transform="translate(-358.17 -1172.67)"/><path class="cls-8" d="M601.31,1202.23a70.46,70.46,0,0,0,10.5.56s.79,0,1.44,0c2.33-.11,7-.63,14.92-3.32,20.72-7.05,19.8-7.59,24.31-8.71,10.06-2.5,22.77-1.68,22.77-1.68a111.79,111.79,0,0,1,30.12,6.73c-.48.67-.94,1.38-1.38,2.14-4.52,7.87-3.83,16.55-2.75,22a26.64,26.64,0,0,0-3.82,2.44,27.71,27.71,0,0,0-5.81,6.12c-3.29,4.48-10.74,6.4-17.58,8.1-14.81,3.68-29.17,3.33-35.77,3.36-8.43,0-21.12.19-37,.66Z" transform="translate(-358.17 -1172.67)"/><path class="cls-9" d="M499.39,1210.44c1.1-.23,2.75-.56,4.77-.89a130.49,130.49,0,0,1,13.41-1.37c7.13-.55,6.7-.91,16.17-1.84,5.32-.52,9.82-.83,13.18-1l2-1.15c2.94-1.72,7.49-4.38,9.4-5.39a34.54,34.54,0,0,1,12.27-3.55,37.67,37.67,0,0,1,16.4,2.18c3.94,1.41,6.87,3.21,13.18,4.58,1.59.35,2.92.57,3.78.69q-.58,7.44-1,15.14-.66,11.75-.91,22.93a5,5,0,0,1-1.15,1.72,6.2,6.2,0,0,1-3,1.37c-2,.54-1.53.83-5.05,2.29a36.55,36.55,0,0,1-5.16,1.84c-2.8.72-4.56.59-7.45.69-1.43,0-4.24.37-9.86,1-4.66.54-8.25,1.1-15.25,2.18-9.91,1.53-9.36,1.59-12.49,2s-7.14.51-14.79.8c-8.62.32-11.62.3-19.72.69-2.75.13-5,.25-6.54.34a27,27,0,0,1-1.49-4.81,27.75,27.75,0,0,1-.46-7.92C499.9,1238.48,499.84,1227.9,499.39,1210.44Z" transform="translate(-358.17 -1172.67)"/><path class="cls-6" d="M681.52,1199.81a66.67,66.67,0,0,0-8.86.23c-1.74.14-4.08.39-7.19.91-8.81,1.49-13.21,2.24-16.81,4.59a20,20,0,0,0-8.11,10.09c-1.78,5.26.33,10.1,3.21,17.42,1.61,4.08,2.57,6.51,4.74,9.33,4,5.22,6.54,4.78,14.56,10.85,7.16,5.42,6.22,7.36,10.9,9.17,3.87,1.5,6.2.83,14.78.81,6,0,10.88.3,14.11.57a3.75,3.75,0,0,0,.8-1,14.87,14.87,0,0,0-4.7-5.24c-6.32-4.19-12.23-.2-19-3.81-2.47-1.33-4.18-3.9-7.75-9a86.21,86.21,0,0,1-9.06-16.28,7.67,7.67,0,0,0,.92-1.68,8.16,8.16,0,0,0,.34-4.63,28.87,28.87,0,0,0,14.1.69c10.65-2.17,20.15-11.91,18.46-17.08S682.87,1199.89,681.52,1199.81Z" transform="translate(-358.17 -1172.67)"/><path class="cls-6" d="M707.75,1257.85" transform="translate(-358.17 -1172.67)"/><path class="cls-10" d="M714.55,1192l7.73-8.25c6.81-7.27,7.71-8.24,9.7-9.2,6.24-3,12.92-1.07,15.55-.3a26.69,26.69,0,0,1,13.15,8.74,24.84,24.84,0,0,1,5.73,14c.12,1.92,1.08,7.13-.88,8.1a3,3,0,0,1-2.92-.64c-.7-.58-.63-1.15-1.26-2.71-.84-2.06-1.24-1.8-2.08-3.79-.89-2.14-.58-2.81-1.47-3.6a3.13,3.13,0,0,0-3.14-.68c-.79.38-.75,1.11-2.08,3.67-.76,1.48-1.15,2.22-1.59,2.4-1.27.51-2.27-1.07-4.55-1.19a6.53,6.53,0,0,0-3,.72c-5.89,2.47-8.13,5.75-10.76,5.3-1-.18-2.41-1-3.77-3.93a9.81,9.81,0,0,0,2.69-1.06c.59-.35,4.3-2.52,3.94-5.09-.28-2.08-3.07-3.16-3.74-3.43a10.62,10.62,0,0,0-4.83-.4c-3,.16-4,.67-7,1.06A40.23,40.23,0,0,1,714.55,1192Z" transform="translate(-358.17 -1172.67)"/></svg>