<svg id="Lag_1" data-name="Lag 1" xmlns="http://www.w3.org/2000/svg" viewBox="0 0 397.36 169.04"><defs><style>.cls-1{fill:#163a1d;}.cls-1,.cls-10,.cls-11,.cls-12,.cls-13,.cls-14,.cls-15,.cls-2,.cls-3,.cls-4,.cls-5,.cls-6,.cls-7,.cls-8,.cls-9{stroke:#1d1d1b;stroke-miterlimit:10;}.cls-1,.cls-10,.cls-11,.cls-12,.cls-13,.cls-14,.cls-2,.cls-3,.cls-4,.cls-5,.cls-6,.cls-7,.cls-8,.cls-9{stroke-width:0.5px;}.cls-2{fill:#b1b1b1;}.cls-3{fill:#085629;}.cls-4{fill:#0590c0;}.cls-5{fill:#d6d8da;}.cls-15,.cls-6{fill:#fff;}.cls-7{fill:#fcd18c;}.cls-8{fill:#1d1d1b;}.cls-9{fill:#1d4921;}.cls-10{fill:none;}.cls-11{fill:#e5ba80;}.cls-12{fill:#312782;}.cls-13{fill:#f8b133;}.cls-14{fill:#422918;}</style></defs><title>armOp</title><path class="cls-1" d="M403.73,1267.91a5.68,5.68,0,0,1,4.24-.34,5.53,5.53,0,0,1,2.87,2.18c.57.61,1.29,1.54,1,2.29-.35,1-2.11.71-3.9,1.72s-2.46,2.64-3.55,5.16a22.17,22.17,0,0,0-1.61,7.22c-.29,2.95-.43,4.42.23,5.39,1.18,1.71,3.2,1.35,5.16,3.67a7.4,7.4,0,0,1,1.26,2.18c.32.86.56,1.51.35,1.95-.71,1.4-6.09,0-6.54-.12-2.5-.66-8.57-2.28-11.46-6.19-4.14-5.6-2.23-16.56,6.3-25.11Z" transform="translate(-363.79 -1133.66)"/><path class="cls-2" d="M405.79,1249.45l9.33,12.44a22.21,22.21,0,0,0-8.52,3.5c-1.3.91-2.05,1.67-3.56,1.95-2.33.43-3-.94-6.07-1s-3.48,1.2-5.16.53c-1.47-.58-1.2-1.59-3.53-3.83-2-1.89-2.77-1.77-3.47-3a4.81,4.81,0,0,1-.42-1.42,7.77,7.77,0,0,1,.42-3.74c.85-2.16,5.41-4.26,11.43-3.71Z" transform="translate(-363.79 -1133.66)"/><path class="cls-3" d="M385,1256.91c-.23,3.75,4.46,8.31,9.29,9.28,2.88.58,4-.49,6.65.69s4.83,3.54,4.36,4.93c-.34,1-1.75.73-3.44,1.72-2.27,1.33-3.07,3.71-4.13,7-1.62,5-3.11,9.67-.92,12,1.91,2.07,5.18.85,6.31,3.21a3,3,0,0,1-.23,3.21,2.48,2.48,0,0,1-1.72.46,37.75,37.75,0,0,1-4.47.12,17.65,17.65,0,0,1-7-2.87,28.61,28.61,0,0,1-8.14-7.34c-1.41-1.91-1.75-2.88-5-10.66-4.35-10.28-4.38-10-4.93-11.81a52.58,52.58,0,0,1-2.29-13.87c5.45-.47,9.73-1,12.72-1.49,1.89-.29,4.22-.67,4.82.34S385.2,1254.38,385,1256.91Z" transform="translate(-363.79 -1133.66)"/><path class="cls-4" d="M393.3,1252.21c0-.46-2.23-.82-3.56-1-1.76-.28-2.82-.44-3.21.12s.22,1.78.46,2.18C392.16,1253,393.29,1252.53,393.3,1252.21Z" transform="translate(-363.79 -1133.66)"/><path class="cls-5" d="M400.06,1301.48c.76,0,1.84.11,3.14.13a14.46,14.46,0,0,0,3.13-.13c1.67-.36,3.47-1.45,3.26-2.08s-3.47-1.06-6-.23A7.76,7.76,0,0,0,400.06,1301.48Z" transform="translate(-363.79 -1133.66)"/><path class="cls-6" d="M369.34,1253c-.94-.82-2.93-.47-4.06.49-.39.34-1.4,1.31-1.22,6,.2,5,.35,8.7,3,11.16,1.42,1.32,2.22,1,3,2.36,1.21,2.12-.22,3.87.16,6.88.11.94.37,1.71,3.13,6,3.16,5,4.74,7.44,6.11,8.87a24.62,24.62,0,0,0,7.8,5.73,23.36,23.36,0,0,0,12.84,1.68c1.25-.8,2.57-1.78,2.38-2.31s-1.66-.31-3.29-.34a25.45,25.45,0,0,1-6.93-1.47c-6-2-9.61-7.25-10.62-8.72a65.8,65.8,0,0,1-3.77-7.66c-1.58-3.43-2.65-6.06-3.91-9.2-1.83-4.51-2.74-6.77-2.88-7.66-1.17-7.49-1.09-9.57-1.09-9.57A2.84,2.84,0,0,0,369.34,1253Z" transform="translate(-363.79 -1133.66)"/><path class="cls-7" d="M498.81,1218.42a24.25,24.25,0,0,1-4,2.45c-1.39.68-3.56,1.58-12.38,3.05-3.54.6-4.31.64-7.34,1.23-2.49.48-3.88.83-5.66,1.22-5.19,1.16-7,1.28-11.61,2.14a100.32,100.32,0,0,0-13,3.06c-6.35,2.09-10.23,4.75-13.76,6.88a110.24,110.24,0,0,1-25.3,11l9.33,12.44c3.29-.58,8.3-1.46,14.45-2.5,8.33-1.41,10.17-1.67,14.06-2.45,6.15-1.22,6-1.45,15.74-3.66s14.82-3.36,19.57-3.67c1.67-.11,1.5,0,10.24-.46,6.76-.32,8.89-.46,11.62-1.23a28.13,28.13,0,0,0,8.41-4Z" transform="translate(-363.79 -1133.66)"/><path class="cls-8" d="M517.31,1259.54c-2.63-4.39-5.26-9.17-7.8-14.37a196,196,0,0,1-10.7-26.75c1-.58,2.49-1.47,4.44-2.44a61.51,61.51,0,0,1,9.17-3.67c7.46-2.44,7.62-3.53,19.41-8.1,2.4-.94,6-2.3,10.55-3.83a36.5,36.5,0,0,1,5.5-7.49,35,35,0,0,1,13.76-9c3.47-1.18,5.61-1.21,19.87-1.22h13.91c.47,1.81,1.19,4.53,2.15,7.8,1.51,5.2,2.66,8.6,4.89,15.28,1.09,3.28,2.72,8.21,4.74,14.37a25.67,25.67,0,0,1-5.81,7,27.13,27.13,0,0,1-10.7,5.36c-11.94,3.25-13.65,7.7-40.05,17.12A332.72,332.72,0,0,1,517.31,1259.54Z" transform="translate(-363.79 -1133.66)"/><path class="cls-9" d="M598,1182a45.27,45.27,0,0,0,30-11.47c3.81-3.38,11.32-7.08,20.79-10.24a79.32,79.32,0,0,1,22.77-4c5.3-.24,7.94-.35,10.4.61,7.08,2.78,10.71,10.39,14.06,17.43a68.3,68.3,0,0,1,3.67,9.47,24,24,0,0,0-4.59-.91c-12-1.22-21.64,7-24.91,10.09-.12,1.58-.27,3.21-.46,4.89-.43,3.65-1,7.07-1.68,10.24-5.07-1.74-8.65-1.33-11-.61-3.59,1.09-4.61,3-9.48,4.28-3.24.87-3.34.17-7,1.07-5.26,1.27-5.19,2.71-9.32,3.51-4.46.87-5.16-.68-9.94.46-2.5.6-2.86,1.16-5.81,2a32.35,32.35,0,0,1-8.25,1.22c-13.07-27.18-13.7-35.69-11-37.6A2.8,2.8,0,0,1,598,1182Z" transform="translate(-363.79 -1133.66)"/><path class="cls-7" d="M698.76,1196.26c.31-3.47.61-6.93.92-10.4v-2l-5.51-1h-6a61.21,61.21,0,0,0-9.44,3.83c-4.8,2.42-7.23,3.68-8.59,6.34-.51,1-.63,1.68-1.26,7.22-.34,2.94-.63,5.6-.88,7.91q.6,7.65,1.22,15.29v10.7L668,1246.56l1.68,24,2.44,13,1.23,14.07,1.68,2.44,8.79,1.84a66.25,66.25,0,0,1,7.87-.8c1.23,0,3.65-.12,6.73,0,5,.26,7.58.38,9.21.61a11.53,11.53,0,0,0,3.7-.07c1.24-.23,2.47-.46,2.6-1,.3-1.21-4.86-4.39-10.77-5.69s-8.47,0-13.88-2a16.92,16.92,0,0,1-5-2.87,193.16,193.16,0,0,0,5.85-20.17c2.81-12.18,4.17-18.38,2.29-23.62a26.8,26.8,0,0,1-2.18-8.49c-.24-3.75.54-6.19,1.26-9.28,2.55-10.89.36-12.77,2.87-21.67A50.53,50.53,0,0,1,698.76,1196.26Z" transform="translate(-363.79 -1133.66)"/><path class="cls-10" d="M647.82,1257.82" transform="translate(-363.79 -1133.66)"/><path class="cls-11" d="M699.68,1183.87l3.4-2.17a33,33,0,0,1,.69,3.55,24.54,24.54,0,0,1,.11,7.68c-.32,1.85-.6,1.45-3.78,9.06a18.6,18.6,0,0,0-1.6,4.93,19.94,19.94,0,0,0,.22,5.62c.25,2.69-.45,5.42-1.83,10.89-1.61,6.36-2.27,6.35-2.41,9.06-.2,3.9,1.09,5.51,2.07,9.4,1.42,5.66.52,10.76-1.27,21-1.11,6.39-1.67,9.59-2.75,12.61-1.53,4.31-1.74,9-2.86,13.41a2.34,2.34,0,0,0,.11,1.72c.69,1.17,2.69,1,4.93,1a61.05,61.05,0,0,1,12.15,1.27,31.8,31.8,0,0,1,3.73,1.16c.12.06.48.06.52.21.07.31-1.1.87-1.49,1-2,.79-4.11-.35-5.62-.91-3.53-1.33-4.78,0-9.29-.47a24.2,24.2,0,0,1-10.2-3.6c.87-2.85,2.1-7,3.49-12,3.33-12,3.91-15.86,4.12-17.33.92-6.61,1.58-9.65.7-13.31-.64-2.66-1.2-2.66-1.84-5.45-.73-3.15-.37-6.5.38-13.06,1-9.06,1.25-10.81,1.63-13.54,1-7.5,1.43-8.94,1.78-10.08,1.47-4.71,2.77-5.55,4-9.3A27.15,27.15,0,0,0,699.68,1183.87Z" transform="translate(-363.79 -1133.66)"/><path class="cls-12" d="M700.55,1185.21a2.33,2.33,0,0,0,3.22-1,2.42,2.42,0,0,0-.61-2.7l-3.49,1.53A2.27,2.27,0,0,0,700.55,1185.21Z" transform="translate(-363.79 -1133.66)"/><path class="cls-13" d="M706.9,1300.31a7.53,7.53,0,0,1,2,.25,7.43,7.43,0,0,1,2.14,1" transform="translate(-363.79 -1133.66)"/><path class="cls-13" d="M708.51,1299.61a10.18,10.18,0,0,1,1.94.48,9.49,9.49,0,0,1,2.08,1" transform="translate(-363.79 -1133.66)"/><path class="cls-13" d="M709.1,1297.88a9.74,9.74,0,0,1,4,1.5" transform="translate(-363.79 -1133.66)"/><path class="cls-7" d="M685.28,1158.79c.73-.58,1.36.3,5.65,1,3.46.57,7.53,1.3,11.46-.35,2.43-1,2.09-1.69,4.93-2.86s3.46-.59,7.57-1.61c4.8-1.18,5.61-2.39,8.48-2.06,1,.11,3.71.42,4.59,2.29,1,2.21-1.21,5.18-1.38,5.39-1.46,1.89-3,2-3.09,3.1,0,.67.57,1.66,3.55,3,.69-.57,6.59-5.35,10.78-7.23,1.58-.7,2.42-1.08,3.55-.91,1.42.21,2.81,1.2,3.56.57a1.8,1.8,0,0,0,.18-.2,38.72,38.72,0,0,0,1.88-4.27c.43-1,.35-1.88,1-2.29a2.72,2.72,0,0,1,2.3.11c1.83.85,1.54,2.56,3.67,5.5,1.46,2,2.16,2,2.4,3.21.44,2.2-1.41,4.3-2.06,5-2.63,3-4.75,2-6.65,4.7-1,1.4-1.31,2.9-1.83,5.5-.67,3.28-.28,4.73-1.27,5.28s-2.13-1-5-.92c-1.39,0-3.2.45-3.44,1.37-.16.61.46,1,.23,1.61a1.81,1.81,0,0,1-2.18.8c-1-.43-.91-2.07-1.37-2.06s-.88,1.09-.69,2.06c.14.74.58.93.46,1.26-.21.57-1.55.14-3,.81-1.26.58-1.24,1.39-2.07,1.72-1.43.56-3.07-1.23-5.27-2.87-.92-.68-5.27-3.92-10.32-4.47-.57-.07-2.48.07-6.31.34-5.58.4-5.87.53-6.56.51C690.69,1181.64,682,1161.36,685.28,1158.79Z" transform="translate(-363.79 -1133.66)"/><path class="cls-14" d="M707.78,1156.41l6.54-9.22c5.76-8.13,6.52-9.21,8.37-10.44,5.77-3.83,12.65-2.81,15.36-2.4a26.7,26.7,0,0,1,14.22,6.87,24.82,24.82,0,0,1,7.56,13.07c.39,1.88,2,6.92.23,8.14a3,3,0,0,1-3-.22c-.77-.49-.78-1.07-1.61-2.52-1.11-1.93-1.48-1.62-2.57-3.48s-1-2.7-1.95-3.36a3.13,3.13,0,0,0-3.21-.25c-.73.48-.59,1.2-1.55,3.92-.56,1.56-.84,2.35-1.26,2.59-1.19.68-2.39-.75-4.67-.56a6.57,6.57,0,0,0-2.91,1.12c-5.5,3.25-7.27,6.81-10,6.71-1,0-2.51-.62-4.26-3.37a10.33,10.33,0,0,0,2.52-1.42c.54-.43,3.92-3.08,3.22-5.58-.57-2-3.47-2.71-4.18-2.88a10.49,10.49,0,0,0-4.84.25c-2.9.56-3.85,1.2-6.82,2A39.19,39.19,0,0,1,707.78,1156.41Z" transform="translate(-363.79 -1133.66)"/><path class="cls-15" d="M748.85,1160.58" transform="translate(-363.79 -1133.66)"/></svg>