<svg id="Lag_1" data-name="Lag 1" xmlns="http://www.w3.org/2000/svg" viewBox="0 0 205.08 350.06"><defs><style>.cls-1{fill:#fcd08c;}.cls-1,.cls-11,.cls-12,.cls-2,.cls-3,.cls-4,.cls-5,.cls-6,.cls-7,.cls-8,.cls-9{stroke:#1d1d1b;stroke-miterlimit:10;}.cls-1,.cls-2,.cls-3,.cls-4,.cls-5,.cls-6,.cls-7,.cls-8,.cls-9{stroke-width:0.5px;}.cls-2{fill:#f8b133;}.cls-3{fill:#e84e1b;opacity:0.2;}.cls-4{fill:#fff;}.cls-5{fill:#9c9b9b;}.cls-6{fill:#085629;}.cls-10,.cls-7{fill:#1d1d1b;}.cls-8{fill:#1d4921;}.cls-9{fill:#422918;}.cls-11,.cls-12{fill:none;}.cls-11{stroke-width:0.75px;}</style></defs><title>gladspiller</title><path class="cls-1" d="M529.61,1106.82a39.7,39.7,0,0,1,.92,8.4,41.26,41.26,0,0,1-3.82,17.28l-3.82.61a39.54,39.54,0,0,1-8.11,8.1,44.85,44.85,0,0,1-17.27,7.49c-3,.73-4.38.41-8.56,1.38-5.54,1.29-5.55,2.09-8.41,2.29a17.73,17.73,0,0,1-12.38-4.28A17.07,17.07,0,0,1,464,1142c-3-6.79-.57-10.26-1.83-21.86-.59-5.45-1.21-5.44-1.53-10.4a61.39,61.39,0,0,1,.76-14.37,41,41,0,0,1,7-10.39c3.64-3.92,7.12-7.67,12.53-8.41s12.71,1.68,13.61,5.81c.63,2.92-2,6-5.35,9.78a7.58,7.58,0,0,1-2.91,2.29c-2.13.92-4.41-.25-6.34.44s-1.2,2.24-4.36,5.07c-1.66,1.48-2,1.22-2.69,2.16-1.75,2.46-.33,6.12.23,8.31.88,3.5,2.37,4.64,5.84,9.86a97.12,97.12,0,0,1,5.18,8.71,37.94,37.94,0,0,1,3.52-3.06,25.85,25.85,0,0,1,8.86-4.89,20.5,20.5,0,0,1,9.63-.3,16.33,16.33,0,0,1,1.38-2.91c2.47-4.08,6.14-5.93,9.32-7.49A36.49,36.49,0,0,1,529.61,1106.82Z" transform="translate(-460.29 -1042.87)"/><path class="cls-2" d="M489.58,1091.66l-5.33-6.1" transform="translate(-460.29 -1042.87)"/><path class="cls-2" d="M491.5,1089.08l-5.27-5.16" transform="translate(-460.29 -1042.87)"/><path class="cls-2" d="M493.66,1086.5l-4.8-4.24" transform="translate(-460.29 -1042.87)"/><ellipse class="cls-3" cx="21.98" cy="48.79" rx="1.32" ry="1.15"/><path class="cls-2" d="M590.35,1070.61" transform="translate(-460.29 -1042.87)"/><path class="cls-4" d="M491.39,1384c-.17.15-2.08,2-1.61,4,.35,1.53,1.86,2.29,3.21,3a10.68,10.68,0,0,0,3.67,1.07c5.8.64,9.06,1,14.14.23a41.61,41.61,0,0,0,7.72-1.84c4.2-1.44,6.22-2.93,11-4.2a37,37,0,0,1,4.21-.88c0-1.58,0-3.28-.16-5.08-.16-2.18-.42-4.2-.73-6" transform="translate(-460.29 -1042.87)"/><path class="cls-1" d="M516.53,1367.94a15,15,0,0,0,14.22,3.52c.16-1.74.41-4.09.76-6.88a87.34,87.34,0,0,1,1.53-9.94c2.91-11.78,2.4-10.39,3.06-12.53,2.17-7.07,3.1-6.42,4.28-11.47a36,36,0,0,0,.92-12.84c-.43-3.55-.93-3.3-1.38-6.88a36.09,36.09,0,0,1,.15-9.93q-3.51-.73-7.18-1.38-6.78-1.2-13.15-2a23.4,23.4,0,0,1-.61,4.28,27.51,27.51,0,0,1-2.14,5.81,28.16,28.16,0,0,0-2,7.34c-.29,1.63-.43,3-.45,9.32,0,6.44,0,9.65.15,12.39.17,2.42.52,5.13,1.22,10.54a97.61,97.61,0,0,1,1.07,10.4A61.74,61.74,0,0,1,516.53,1367.94Z" transform="translate(-460.29 -1042.87)"/><path class="cls-5" d="M523.17,1372.59a4.3,4.3,0,0,0,2.54,1c2.85.09,5.32-3.29,4.73-4.62-.43-1-2.23-.17-6.11-1.38-2.56-.79-3.82-1.78-4.27-1.32-.27.28-.23,1.14,1.52,3.85" transform="translate(-460.29 -1042.87)"/><path class="cls-6" d="M530.44,1369c.66-.13,1.35.82,1.53,1.07.45.61,1.14,1.89.84,4.59-.18,1.63-.67,6.09-3.51,7.33-1.33.59-1.67-.19-4.44.23a18,18,0,0,0-4.73,1.53c-3.07,1.33-3.44,2-5.28,2.83-2.06.88-2.8.48-7.72.76-7.36.43-8.73,1.5-11.46.31a10.2,10.2,0,0,1-4.28-3.67c.54-.47,1.4-1.19,2.52-2,3.46-2.44,5.15-2.56,7.95-4.28a20.67,20.67,0,0,0,6.27-5.8c2.44-3.58,1.7-5.37,3.89-6.81s5.64-1.43,7.34.16c1.16,1.07.59,2,2.22,4.89,1,1.8,1.79,3.15,3.21,3.44a4.62,4.62,0,0,0,4.2-2C529.86,1370.39,529.74,1369.15,530.44,1369Z" transform="translate(-460.29 -1042.87)"/><path class="cls-4" d="M634,1382.68c.16.15,2.07,2,1.6,4-.35,1.53-1.86,2.3-3.21,3a10.68,10.68,0,0,1-3.67,1.07c-5.8.63-9.06,1-14.14.23a42.45,42.45,0,0,1-7.72-1.84c-4.2-1.45-6.21-2.93-11-4.2a41,41,0,0,0-4.21-.89c0-1.58,0-3.27.16-5.07.15-2.18.41-4.2.72-6" transform="translate(-460.29 -1042.87)"/><path class="cls-1" d="M608.81,1368.06a14.93,14.93,0,0,1-14.25,3.36c-.15-1.73-.37-4.09-.69-6.88a86.92,86.92,0,0,0-1.42-10c-2.78-11.82-2.29-10.42-2.93-12.57-2.09-7.09-3-6.45-4.15-11.51a35.72,35.72,0,0,1-.78-12.85c.46-3.54,1-3.29,1.45-6.87a35.26,35.26,0,0,0,0-9.93q3.53-.69,7.2-1.3c4.53-.75,8.93-1.36,13.17-1.85a23.61,23.61,0,0,0,.56,4.29,27.83,27.83,0,0,0,2.08,5.83,27.66,27.66,0,0,1,1.91,7.36c.28,1.64.4,3,.36,9.33s-.06,9.65-.29,12.38c-.2,2.42-.58,5.13-1.34,10.53a99.57,99.57,0,0,0-1.18,10.39A61.55,61.55,0,0,0,608.81,1368.06Z" transform="translate(-460.29 -1042.87)"/><path class="cls-5" d="M603.09,1371.87a4.31,4.31,0,0,1-2.55,1c-2.85.08-5.31-3.29-4.73-4.62.43-1,2.23-.17,6.11-1.38,2.56-.79,3.83-1.78,4.27-1.32.28.28.24,1.14-1.51,3.84" transform="translate(-460.29 -1042.87)"/><path class="cls-6" d="M594.94,1367.7c-.65-.13-1.35.82-1.53,1.07-.44.61-1.14,1.89-.84,4.59.18,1.63.67,6.09,3.52,7.33,1.32.59,1.66-.19,4.43.23a18,18,0,0,1,4.74,1.53c3.07,1.33,3.43,2,5.27,2.83,2.07.88,2.8.48,7.72.76,7.36.43,8.73,1.49,11.47.31a10.27,10.27,0,0,0,4.28-3.67,32,32,0,0,0-2.53-2c-3.46-2.45-5.15-2.56-7.94-4.28a20.49,20.49,0,0,1-6.27-5.81c-2.44-3.57-1.71-5.36-3.9-6.8s-5.63-1.43-7.34.15c-1.16,1.08-.59,2-2.21,4.9-1,1.8-1.8,3.15-3.21,3.44a4.63,4.63,0,0,1-4.21-2C595.53,1369.08,595.64,1367.84,594.94,1367.7Z" transform="translate(-460.29 -1042.87)"/><path class="cls-7" d="M533.2,1197a51.36,51.36,0,0,0,8.86,3.66,56.39,56.39,0,0,0,15.59,2.3,80.15,80.15,0,0,0,24-2.6,74.08,74.08,0,0,0,10.55-3.82c.65,1,1.51,2.33,2.45,4a79.46,79.46,0,0,1,4.74,9.94A116.32,116.32,0,0,1,604,1225,106.29,106.29,0,0,1,607,1240.6c.23,2.14.44,4.76,0,20.18-.31,10.78-.49,12.83-.61,19-.16,7.9-.06,14.66.09,19.88l-27.3,2.61a233.49,233.49,0,0,1-8.57-29.35c-1.43-6.53-2.71-13.73-5-26.93-.91-5.18-1.65-9.47-2.14-12.38l-1.11,1c-.37,1.18-.91,3-1.49,5.24-4,15.46-2.87,25.61-3.67,35.18a79.7,79.7,0,0,1-8.25,28.74l-29.33-4.59c-.05-7.55-.19-13.86-.33-18.52-.08-2.91-.2-7.32-.45-13.14-.54-12.58-.85-12.83-.77-17.28a106.92,106.92,0,0,1,1.84-17.12c1.11-6.67,2-12.21,4.58-19.11A79.63,79.63,0,0,1,533.2,1197Z" transform="translate(-460.29 -1042.87)"/><path class="cls-8" d="M534.88,1169.1,533.2,1197a56.58,56.58,0,0,0,6.78,3c20.89,7.59,41.37,1.13,52.22-3.43a90.65,90.65,0,0,0-.46-10.74c-.56-5.46-1.2-6.69-1.14-10.66a28.48,28.48,0,0,1,1.6-10.21c1.6-4.29,3.14-4.68,4.47-9.4a43.87,43.87,0,0,0,1.15-6.3c.59-4.34.35-5.26.8-7.69a24.76,24.76,0,0,1,3.21-8.25c-.51-1.47-1.22-3.6-2-6.19-1.35-4.82-2.14-7.62-2.29-11a28,28,0,0,1,1.61-10.55,15.43,15.43,0,0,0-6.2-1.95,16.27,16.27,0,0,0-2.52,0,20.33,20.33,0,0,1-1.26,3c-.81,1.55-2.22,3.77-6.19,7.22-3.16,2.74-5.84,5.08-10.2,7a22.3,22.3,0,0,1-20.76-.23,34.87,34.87,0,0,1-10.66-7.56,41.86,41.86,0,0,1-7-9.18l-7.34,2a32.8,32.8,0,0,1,.8,6.31c0,1.14.09,4.61-2.06,14.1-.41,1.8-1,4.32-1.83,7.34a46.87,46.87,0,0,1,1.94,5.85c.84,3.17.85,4.51,2,10.31a43.45,43.45,0,0,0,1.49,6.54c1.16,2.92,2.28,3.84,3.67,7A27.48,27.48,0,0,1,534.88,1169.1Z" transform="translate(-460.29 -1042.87)"/><path class="cls-1" d="M536.25,1102.72l11.35-3.67,2.18-1.15-.69-10.89-4-7.45a4.51,4.51,0,0,1-2.46-.8c-1.6-1.16-1.8-3.2-2-5.28-.18-1.73-.24-5,.57-5.21.64-.14,1.75,1.69,2.24,3.15a19.08,19.08,0,0,0,1,3.32,8.54,8.54,0,0,0,1,1.61c.05-1.23.14-3,.29-5.16a40,40,0,0,1,.75-6.59,16.72,16.72,0,0,1,3.67-6.77c.56.19,1.37.46,2.35.75a41.42,41.42,0,0,0,5.5,1.32,27,27,0,0,0,6.3,0,46.11,46.11,0,0,0,7.34-.92c2-.46,2.62-.77,3.61-.46,2.13.65,3.11,3.17,3.5,4.18.81,2.08.58,3.36.8,7.06.14,2.35.38,4.3.58,5.67a18.48,18.48,0,0,0,1.54-2.52c1.09-2.12,1.12-3.16,1.44-3.15.73,0,2.48,5.36.23,8.19-1.1,1.38-2.28,1.06-3.73,2.75-.94,1.1-1.24,2.28-1.83,4.65a31.77,31.77,0,0,0-.92,9.34c0,1.17-.36,2.24.29,3.1.79,1,2.36,1.07,3,1.11,3.83.19,9.38,2.45,10.35,4.73,1.5,3.53-6.51,10.42-11.92,13.89-4.08,2.62-9,5.77-16,5.75-7.43,0-12.68-3.58-16-5.84a37.85,37.85,0,0,1-12.09-13.57Z" transform="translate(-460.29 -1042.87)"/><path class="cls-9" d="M545.6,1076.49a33.54,33.54,0,0,1-3.08-7.48,38.39,38.39,0,0,1-1.22-9.17c-.09-4.53-.09-6.8,1.45-8.79.59-.76,1.13-1.13,5.5-3.13,5.65-2.6,8.52-3.9,10.63-4.29a16.68,16.68,0,0,1,7.79-.07c2.72.73,2.94,1.71,7.34,3.44,3.34,1.31,3.82,1,5.5,2.06a12.72,12.72,0,0,1,4.59,5.35c1.46,3.38.74,6.47-.61,11.85a50.5,50.5,0,0,1-3.57,9.8c-.09-2-.22-3.56-.33-4.68a47.51,47.51,0,0,1-.21-5.34c0-.52,0-.73,0-.73a3,3,0,0,0,.08-1,5.73,5.73,0,0,0-3.28-4.82c-1.62-.58-2.09.61-5.35,1-2,.23-1.77-.1-6.5-.31-7-.31-7.56,1-10.17,0a6.39,6.39,0,0,0-4-.46,5.51,5.51,0,0,0-1.3.54c-1.76,1-2.51,3.44-3,6.11A37.38,37.38,0,0,0,545.6,1076.49Z" transform="translate(-460.29 -1042.87)"/><path class="cls-1" d="M596.05,1104.69a40.42,40.42,0,0,0-.91,8.4,41.1,41.1,0,0,0,3.82,17.28l3.82.61a39.54,39.54,0,0,0,8.1,8.1,45,45,0,0,0,17.28,7.49c3,.73,4.38.41,8.56,1.38,5.53,1.29,5.55,2.09,8.4,2.29a17.75,17.75,0,0,0,12.39-4.28,17.16,17.16,0,0,0,4.12-6.11c3-6.79.58-10.26,1.84-21.86.59-5.45,1.2-5.44,1.53-10.4a61.3,61.3,0,0,0-.77-14.37,40.91,40.91,0,0,0-7-10.39c-3.64-3.92-7.13-7.67-12.53-8.41s-12.71,1.68-13.61,5.81c-.63,2.92,2,6,5.35,9.78a7.58,7.58,0,0,0,2.91,2.29c2.12.92,4.41-.25,6.34.44s1.2,2.24,4.36,5.07c1.66,1.48,2,1.22,2.69,2.16,1.74,2.46.32,6.12-.23,8.31-.88,3.5-2.37,4.64-5.85,9.86a99.94,99.94,0,0,0-5.17,8.71,39.31,39.31,0,0,0-3.52-3.06,25.9,25.9,0,0,0-8.87-4.89,20.49,20.49,0,0,0-9.63-.3,15.5,15.5,0,0,0-1.37-2.91c-2.47-4.08-6.14-5.93-9.33-7.49A36.42,36.42,0,0,0,596.05,1104.69Z" transform="translate(-460.29 -1042.87)"/><path class="cls-2" d="M636.09,1089.53l5.33-6.1" transform="translate(-460.29 -1042.87)"/><path class="cls-2" d="M634.17,1087l5.27-5.16" transform="translate(-460.29 -1042.87)"/><path class="cls-2" d="M632,1084.37l4.79-4.24" transform="translate(-460.29 -1042.87)"/><ellipse class="cls-3" cx="183.1" cy="46.66" rx="1.32" ry="1.15"/><ellipse class="cls-10" cx="96.07" cy="28.9" rx="3.38" ry="2.29"/><ellipse class="cls-10" cx="109.2" cy="28.9" rx="3.38" ry="2.29"/><path class="cls-11" d="M549.09,1087s13,19.26,28.23.37" transform="translate(-460.29 -1042.87)"/><path class="cls-12" d="M562.54,1072.28l-2.8,8s1.43,3.52,5.25,0" transform="translate(-460.29 -1042.87)"/><path class="cls-12" d="M554.29,1086.31" transform="translate(-460.29 -1042.87)"/><path class="cls-12" d="M555.82,1087s5.35,2.61,14,0" transform="translate(-460.29 -1042.87)"/><path class="cls-12" d="M551.92,1067.89s3.26-3.14,7.82,0" transform="translate(-460.29 -1042.87)"/><path class="cls-12" d="M565.58,1067.89s3.26-3.14,7.82,0" transform="translate(-460.29 -1042.87)"/></svg>