<svg id="Lag_1" data-name="Lag 1" xmlns="http://www.w3.org/2000/svg" viewBox="0 0 152.83 350.45"><defs><style>.cls-1{fill:#fff;}.cls-1,.cls-10,.cls-12,.cls-13,.cls-2,.cls-3,.cls-4,.cls-5,.cls-6,.cls-7,.cls-8,.cls-9{stroke:#1d1d1b;stroke-miterlimit:10;}.cls-1,.cls-10,.cls-2,.cls-3,.cls-4,.cls-5,.cls-6,.cls-7,.cls-8,.cls-9{stroke-width:0.5px;}.cls-2{fill:#fcd18c;}.cls-3{fill:#9c9b9b;}.cls-4{fill:#085629;}.cls-12,.cls-13,.cls-5{fill:none;}.cls-6{fill:#1d4921;}.cls-11,.cls-7{fill:#1d1d1b;}.cls-8{fill:#f8b133;}.cls-9{fill:#fcd08c;}.cls-10{fill:#422918;}.cls-12{stroke-width:0.75px;}</style></defs><title>normalspiller</title><path class="cls-1" d="M490.94,1384.18c-.17.16-2.07,2-1.61,4,.36,1.53,1.86,2.29,3.21,3a10.73,10.73,0,0,0,3.67,1.07c5.8.64,9.06,1,14.14.23a41.61,41.61,0,0,0,7.72-1.84c4.2-1.44,6.22-2.93,11-4.2a39.84,39.84,0,0,1,4.21-.88c0-1.58,0-3.28-.16-5.08-.16-2.18-.41-4.19-.72-6" transform="translate(-486.42 -1042.68)"/><path class="cls-2" d="M516.09,1368.13a15,15,0,0,0,14.21,3.52c.17-1.73.41-4.09.77-6.88a83,83,0,0,1,1.53-9.94c2.9-11.78,2.39-10.38,3-12.53,2.18-7.07,3.1-6.42,4.28-11.47a35.75,35.75,0,0,0,.92-12.84c-.43-3.54-.92-3.3-1.38-6.88a35.62,35.62,0,0,1,.16-9.93q-3.51-.72-7.19-1.38c-4.52-.8-8.91-1.45-13.14-2a22.71,22.71,0,0,1-.62,4.28,26.45,26.45,0,0,1-2.14,5.81,27.79,27.79,0,0,0-2,7.34c-.3,1.63-.43,3-.46,9.33s0,9.64.15,12.38c.17,2.42.52,5.13,1.22,10.55a94.41,94.41,0,0,1,1.07,10.39A61.93,61.93,0,0,1,516.09,1368.13Z" transform="translate(-486.42 -1042.68)"/><path class="cls-3" d="M522.72,1372.78a4.3,4.3,0,0,0,2.54,1c2.85.09,5.32-3.29,4.74-4.62-.43-1-2.24-.17-6.12-1.37-2.56-.8-3.82-1.79-4.26-1.33-.28.29-.24,1.14,1.51,3.85" transform="translate(-486.42 -1042.68)"/><path class="cls-4" d="M530,1369.2c.65-.13,1.35.83,1.53,1.07.44.61,1.13,1.89.84,4.59-.18,1.64-.67,6.09-3.52,7.34-1.33.58-1.67-.19-4.43.23a17.54,17.54,0,0,0-4.74,1.52c-3.07,1.33-3.44,2-5.28,2.83-2.06.88-2.8.48-7.72.77-7.36.42-8.73,1.49-11.46.3a10.2,10.2,0,0,1-4.28-3.67,31.35,31.35,0,0,1,2.52-2c3.47-2.45,5.16-2.57,8-4.28a20.49,20.49,0,0,0,6.27-5.81c2.44-3.57,1.7-5.37,3.9-6.81s5.63-1.43,7.33.16c1.17,1.08.6,2,2.22,4.89,1,1.8,1.8,3.16,3.21,3.44a4.6,4.6,0,0,0,4.2-2C529.41,1370.58,529.29,1369.34,530,1369.2Z" transform="translate(-486.42 -1042.68)"/><path class="cls-1" d="M633.55,1382.87c.17.16,2.07,2,1.6,4-.35,1.53-1.85,2.29-3.21,3a10.64,10.64,0,0,1-3.66,1.07c-5.81.64-9.06,1-14.14.23a41.43,41.43,0,0,1-7.72-1.84c-4.2-1.44-6.22-2.93-11-4.2a39.84,39.84,0,0,0-4.21-.88c0-1.58,0-3.28.16-5.08.15-2.18.41-4.2.72-6" transform="translate(-486.42 -1042.68)"/><path class="cls-2" d="M608.36,1368.25a15,15,0,0,1-14.25,3.37c-.15-1.74-.36-4.1-.69-6.89a84.73,84.73,0,0,0-1.42-10c-2.78-11.81-2.29-10.42-2.92-12.57-2.1-7.09-3-6.45-4.16-11.51a35.93,35.93,0,0,1-.78-12.85,27.43,27.43,0,0,1,1-4.58s.24-1,.41-2.28c.23-1.7-.37-6.6-2.34-12.89,3.09-.06,6.19-.12,9.33-.15q6.75-.08,13.33,0a22.72,22.72,0,0,0,.57,4.28,27.26,27.26,0,0,0,2.07,5.83,27.39,27.39,0,0,1,1.91,7.36c.28,1.64.4,3,.36,9.33s-.06,9.65-.29,12.38c-.2,2.43-.57,5.13-1.33,10.54A93.2,93.2,0,0,0,608,1358,61.73,61.73,0,0,0,608.36,1368.25Z" transform="translate(-486.42 -1042.68)"/><path class="cls-3" d="M602.64,1372.06a4.3,4.3,0,0,1-2.54,1c-2.85.08-5.32-3.29-4.74-4.62.43-1,2.24-.17,6.12-1.38,2.56-.79,3.82-1.78,4.26-1.32.28.28.24,1.14-1.51,3.85" transform="translate(-486.42 -1042.68)"/><path class="cls-4" d="M594.49,1367.89c-.65-.13-1.35.83-1.53,1.07-.44.61-1.13,1.89-.84,4.59.18,1.63.67,6.09,3.52,7.33,1.33.59,1.67-.19,4.43.23a17.91,17.91,0,0,1,4.74,1.53c3.07,1.33,3.44,2,5.27,2.83,2.07.88,2.81.48,7.72.77,7.37.42,8.74,1.49,11.47.3a10.2,10.2,0,0,0,4.28-3.67c-.54-.47-1.4-1.19-2.52-2-3.47-2.44-5.16-2.56-7.95-4.28a20.42,20.42,0,0,1-6.27-5.8c-2.44-3.58-1.71-5.37-3.9-6.81s-5.63-1.43-7.34.16c-1.16,1.08-.59,2-2.21,4.89-1,1.8-1.8,3.15-3.21,3.44a4.62,4.62,0,0,1-4.21-2C595.08,1369.27,595.19,1368,594.49,1367.89Z" transform="translate(-486.42 -1042.68)"/><path class="cls-2" d="M526.63,1106c-.86-.46-1.09-.08-8.82.8-5.72.65-6.23.52-7.92,1.14a18.68,18.68,0,0,0-7.33,5.28c-2.06,2.24-4,4.42-4.59,7.68-.67,4,1.31,6.74-.69,9.86-.39.62-.43.46-1.37,1.72a31.43,31.43,0,0,0-3.21,5.5c-1.24,2.94-.64,4.73-.69,10.44a82.7,82.7,0,0,1-.57,8.82,31.17,31.17,0,0,0-1.84,3.56A35,35,0,0,0,487,1171c-.66,5.69-.11,10.08.58,15.36,1.08,8.29,2.08,7.47,2.63,13.53.8,8.63-1.16,9.44.46,15.6.93,3.53,1.85,4.33,3.44,10.31,1.12,4.2,1,5,1.84,6.08,1.64,2,5.83,3.53,17.54.12.08-1.5.15-3,.23-4.48a3.14,3.14,0,0,0,4.35-1.14,17.94,17.94,0,0,1-7.68-11.12,16.37,16.37,0,0,1-8.6-6.88,16.91,16.91,0,0,1-2.06-10.67,21.15,21.15,0,0,1,1.95-6.76,31.58,31.58,0,0,1,6.53-9.63,18.4,18.4,0,0,0,1.15-4.93c.34-3.67-.6-5.63-.8-10.89-.06-1.58,0-2.87,0-3.67l2.18-1.61a33.67,33.67,0,0,0,6.53-21.21q.28-2.8.58-5.61a9,9,0,0,0,4.81-.58C531.42,1129,532.17,1108.94,526.63,1106Z" transform="translate(-486.42 -1042.68)"/><path class="cls-2" d="M599,1106c.87-.46,1.1-.08,8.83.8,5.72.65,6.23.52,7.91,1.14a18.66,18.66,0,0,1,7.34,5.28c2,2.24,4,4.42,4.59,7.68.67,4-1.31,6.74.68,9.86.4.62.44.46,1.38,1.72A31.43,31.43,0,0,1,633,1138c1.24,2.94.63,4.73.69,10.44a80.11,80.11,0,0,0,.57,8.82,32.89,32.89,0,0,1,1.84,3.56,34.7,34.7,0,0,1,2.63,10.2c.66,5.69.12,10.08-.57,15.36-1.08,8.29-2.08,7.47-2.64,13.53-.79,8.63,1.16,9.44-.46,15.6-.92,3.53-1.85,4.33-3.44,10.31-1.11,4.2-1,5-1.83,6.08-1.64,2-5.83,3.53-17.54.12-.08-1.5-.15-3-.23-4.48a3.22,3.22,0,0,1-2.41.35,3.27,3.27,0,0,1-2-1.49,17.84,17.84,0,0,0,7.68-11.12,16.33,16.33,0,0,0,8.6-6.88,16.86,16.86,0,0,0,2.07-10.67,21.41,21.41,0,0,0-2-6.76,31.65,31.65,0,0,0-6.54-9.63,18.7,18.7,0,0,1-1.14-4.93c-.34-3.67.6-5.63.8-10.89.06-1.58,0-2.87,0-3.67l-2.18-1.61a33.54,33.54,0,0,1-4.93-9.63,34,34,0,0,1-1.61-11.58l-.57-5.61a9,9,0,0,1-4.81-.58C594.25,1129,593.49,1108.94,599,1106Z" transform="translate(-486.42 -1042.68)"/><path class="cls-5" d="M625.52,1225c-.33-.86-1.33-3.19-3.21-3.55-1.1-.21-2,.33-4.78,2.21-1.61,1.1-3.47,2.39-5.54,3.86" transform="translate(-486.42 -1042.68)"/><path class="cls-6" d="M534.43,1169.29l-1.68,27.94a56.58,56.58,0,0,0,6.78,3c20.89,7.59,41.38,1.13,52.22-3.43a88.88,88.88,0,0,0-.45-10.74c-.57-5.46-1.21-6.69-1.15-10.66a28.51,28.51,0,0,1,1.6-10.21c1.6-4.28,3.15-4.68,4.48-9.4a45.44,45.44,0,0,0,1.14-6.3c.6-4.34.36-5.26.8-7.68a24.64,24.64,0,0,1,3.22-8.26c-.52-1.47-1.22-3.59-1.95-6.19-1.36-4.82-2.14-7.61-2.3-11a28.17,28.17,0,0,1,1.61-10.54,15,15,0,0,0-6.19-2,14.22,14.22,0,0,0-2.53,0,19.66,19.66,0,0,1-1.26,3c-.81,1.55-2.22,3.77-6.19,7.22-3.15,2.75-5.84,5.08-10.2,7a24,24,0,0,1-8.83,2.41,24.37,24.37,0,0,1-11.92-2.64,34.48,34.48,0,0,1-10.67-7.56,41.84,41.84,0,0,1-7-9.17l-7.34,2a33.23,33.23,0,0,1,.81,6.3c0,1.14.09,4.62-2.07,14.1-.41,1.8-1,4.33-1.83,7.34a48.29,48.29,0,0,1,2,5.85c.83,3.18.84,4.51,2,10.32a43.53,43.53,0,0,0,1.49,6.53c1.15,2.92,2.27,3.85,3.67,7A27.94,27.94,0,0,1,534.43,1169.29Z" transform="translate(-486.42 -1042.68)"/><path class="cls-5" d="M500.15,1225c.33-.86,1.33-3.19,3.21-3.55,1.09-.21,2,.33,4.78,2.21,1.6,1.1,3.47,2.39,5.54,3.86" transform="translate(-486.42 -1042.68)"/><path class="cls-7" d="M533,1195.15a51.89,51.89,0,0,0,8.87,3.67,55.91,55.91,0,0,0,15.59,2.29,79.85,79.85,0,0,0,24-2.6,73.31,73.31,0,0,0,10.55-3.82c.65,1,1.5,2.33,2.44,4a78.73,78.73,0,0,1,4.74,9.94,118.7,118.7,0,0,1,4.59,14.52,107.87,107.87,0,0,1,3.05,15.6c.24,2.13.44,4.76,0,20.17-.3,10.78-.49,12.84-.61,19-.16,7.9-.06,14.66.09,19.88l-27.3,2.61a231,231,0,0,1-8.56-29.35c-1.44-6.52-2.71-13.73-5-26.92-.92-5.19-1.65-9.48-2.14-12.39l-1.11,1c-.37,1.18-.92,3-1.49,5.24-4,15.46-2.88,25.61-3.67,35.18a79.7,79.7,0,0,1-8.26,28.74l-29.32-4.59c-.06-7.55-.2-13.86-.33-18.51-.08-2.91-.21-7.33-.46-13.15-.54-12.58-.85-12.83-.76-17.27a107,107,0,0,1,1.83-17.13c1.12-6.66,2-12.21,4.59-19.1A79.3,79.3,0,0,1,533,1195.15Z" transform="translate(-486.42 -1042.68)"/><path class="cls-8" d="M511.24,1072.71" transform="translate(-486.42 -1042.68)"/><path class="cls-9" d="M535.55,1102.53l11.36-3.67,2.17-1.15c-.23-3.63-.45-7.26-.68-10.89l-4-7.45a4.45,4.45,0,0,1-2.46-.81c-1.59-1.16-1.8-3.19-2-5.27-.17-1.74-.24-5,.57-5.22.65-.13,1.75,1.69,2.24,3.16a19.42,19.42,0,0,0,1,3.32,8.06,8.06,0,0,0,1,1.61c0-1.23.13-3,.28-5.16a40.27,40.27,0,0,1,.75-6.6,16.69,16.69,0,0,1,3.67-6.76c.56.19,1.37.46,2.35.75a40.4,40.4,0,0,0,5.5,1.31,26,26,0,0,0,6.31,0,46,46,0,0,0,7.33-.91c2-.46,2.62-.77,3.62-.46,2.12.65,3.1,3.17,3.49,4.18.81,2.08.59,3.36.81,7,.13,2.36.37,4.31.57,5.68a19.42,19.42,0,0,0,1.55-2.52c1.08-2.13,1.11-3.16,1.43-3.16.73,0,2.48,5.37.23,8.2-1.1,1.38-2.28,1.06-3.73,2.75-.94,1.1-1.23,2.28-1.83,4.65a31.73,31.73,0,0,0-.92,9.34c.06,1.16-.36,2.24.29,3.1.79,1.05,2.36,1.07,3,1.1,3.84.2,9.38,2.46,10.35,4.74,1.5,3.53-6.51,10.42-11.92,13.89-4.08,2.61-9,5.77-16,5.75-7.43,0-12.69-3.58-16-5.84a37.88,37.88,0,0,1-12.1-13.57Z" transform="translate(-486.42 -1042.68)"/><path class="cls-10" d="M544.9,1076.3a33.54,33.54,0,0,1-3.08-7.48,39,39,0,0,1-1.22-9.17c-.09-4.53-.09-6.8,1.45-8.79.59-.76,1.13-1.13,5.5-3.14,5.65-2.59,8.52-3.9,10.63-4.28a16.72,16.72,0,0,1,7.8-.07c2.72.72,2.93,1.71,7.33,3.44,3.34,1.31,3.82,1,5.51,2.06a12.73,12.73,0,0,1,4.58,5.35c1.46,3.38.74,6.47-.61,11.85a50.5,50.5,0,0,1-3.57,9.8c-.09-2-.22-3.57-.33-4.69a50.21,50.21,0,0,1-.21-5.33c0-.52.05-.73.05-.73a3.27,3.27,0,0,0,.09-1,5.73,5.73,0,0,0-3.29-4.82c-1.62-.58-2.09.61-5.35,1-2,.24-1.77-.09-6.5-.3-7-.31-7.55,1-10.16,0a6.37,6.37,0,0,0-4-.46,5.22,5.22,0,0,0-1.3.54c-1.76,1-2.51,3.44-3,6.11A37.38,37.38,0,0,0,544.9,1076.3Z" transform="translate(-486.42 -1042.68)"/><ellipse class="cls-11" cx="69.25" cy="28.9" rx="3.38" ry="2.29"/><ellipse class="cls-11" cx="82.38" cy="28.9" rx="3.38" ry="2.29"/><path class="cls-12" d="M548.4,1086.82s13,19.26,28.22.37" transform="translate(-486.42 -1042.68)"/><path class="cls-13" d="M561.84,1072.09l-2.8,8s1.43,3.51,5.25,0" transform="translate(-486.42 -1042.68)"/><path class="cls-13" d="M553.59,1086.12" transform="translate(-486.42 -1042.68)"/><path class="cls-13" d="M555.12,1086.82s5.35,2.61,14,0" transform="translate(-486.42 -1042.68)"/><path class="cls-13" d="M551.22,1067.7s3.26-3.14,7.82,0" transform="translate(-486.42 -1042.68)"/><path class="cls-13" d="M564.89,1067.7s3.25-3.14,7.82,0" transform="translate(-486.42 -1042.68)"/></svg>