<svg xmlns="http://www.w3.org/2000/svg" viewBox="0 0 68.33 68.33"><defs><style>.cls-1{fill:#bf1b24;}.cls-2{fill:#fff;}</style></defs><title>return-arrow</title><g id="Layer_2" data-name="Layer 2"><g id="Capa_1" data-name="Capa 1"><circle class="cls-1" cx="34.17" cy="34.17" r="34.17"/><path class="cls-2" d="M23.9,14.29c-1,.48-1.49.42-1.16-.25l.6-1.21a3.49,3.49,0,1,0-6.26-3.11L11.73,20.46a3.5,3.5,0,0,0,1.58,4.69L24.05,30.5a3.5,3.5,0,1,0,3.12-6.27L26,23.65c-.64-.32-.45-1.14.5-1.69a15,15,0,1,1,.89,26.43,4,4,0,1,0-3.56,7.16,23,23,0,1,0,.06-41.26Z"/></g></g></svg>